<svg xmlns="http://www.w3.org/2000/svg" width="28" height="28" viewBox="0 0 28 28">
    <path fill="#FFF" fill-rule="evenodd" d="M5 19.5h1a1 1 0 0 1 1 1v1a1 1 0 0 1-1 1H5a1 1 0 0 1-1-1v-1a1 1 0 0 1 1-1zm0-7h1a1 1 0 0 1 1 1v1a1 1 0 0 1-1 1H5a1 1 0 0 1-1-1v-1a1 1 0 0 1 1-1zm0-7h1a1 1 0 0 1 1 1v1a1 1 0 0 1-1 1H5a1 1 0 0 1-1-1v-1a1 1 0 0 1 1-1zm6 14h12a1 1 0 0 1 1 1v1a1 1 0 0 1-1 1H11a1 1 0 0 1-1-1v-1a1 1 0 0 1 1-1zm0-7h12a1 1 0 0 1 1 1v1a1 1 0 0 1-1 1H11a1 1 0 0 1-1-1v-1a1 1 0 0 1 1-1zm0-7h12a1 1 0 0 1 1 1v1a1 1 0 0 1-1 1H11a1 1 0 0 1-1-1v-1a1 1 0 0 1 1-1z"/>
</svg>
