<svg xmlns="http://www.w3.org/2000/svg" xmlns:xlink="http://www.w3.org/1999/xlink" width="28" height="28" viewBox="0 0 28 28">
    <defs>
        <path id="a" d="M14 12.547l7.195-7.195c.44-.44 1.122-.472 1.524-.07.4.4.37 1.083-.071 1.523L15.453 14l7.195 7.195c.44.44.472 1.122.07 1.524-.4.4-1.083.37-1.523-.071L14 15.453l-7.195 7.195c-.44.44-1.122.472-1.524.07-.4-.4-.37-1.083.071-1.523L12.547 14 5.352 6.805c-.44-.44-.472-1.122-.07-1.524.4-.4 1.083-.37 1.523.071L14 12.547z"/>
    </defs>
    <g fill="none" fill-rule="evenodd">
        <mask id="b" fill="#fff">
            <use xlink:href="#a"/>
        </mask>
        <g fill="#FFF" mask="url(#b)">
            <path d="M0 0h28v28H0z"/>
        </g>
    </g>
</svg>
