<svg xmlns="http://www.w3.org/2000/svg" xmlns:xlink="http://www.w3.org/1999/xlink" width="110" height="28" viewBox="0 0 110 28">
    <defs>
        <path id="a" d="M0 4h28.81v20H0V4zm6.687 17.39a5.328 5.328 0 0 0 2.397-.596 5.924 5.924 0 0 0 1.985-1.527 7.634 7.634 0 0 0 1.374-2.382 8.29 8.29 0 0 0 .488-2.854 7.985 7.985 0 0 0-.488-2.81 8.076 8.076 0 0 0-1.374-2.381 5.954 5.954 0 0 0-1.985-1.664 5.344 5.344 0 0 0-2.397-.565H3.374v14.794l3.313-.016zm18.718 0V6.61h-3.283c-.838.002-1.665.2-2.412.58a6.214 6.214 0 0 0-2.015 1.528 7.802 7.802 0 0 0-1.36 2.381 8.183 8.183 0 0 0-.488 2.81 8.489 8.489 0 0 0 .489 2.854c.29.917.757 1.767 1.374 2.504a6.214 6.214 0 0 0 2.015 1.527c.747.38 1.574.58 2.412.58l3.268.015zm19.587-3.512h-6.717l-1.298 3.74h-2.214L40.23 6.153h2.61l5.497 15.465h-2.199l-1.145-3.74zm-6.107-1.527h5.604l-1.985-5.801a29.49 29.49 0 0 0-.306-.993 10.962 10.962 0 0 1-.427-1.618l-.794 2.61-2.092 5.802zm16.321 5.359h-2.183V7.802h-4.58v-1.65H59.74v1.65h-4.58v13.877l.046.03zm20.03-15.557h2.81v15.465H76.06V8.794c-.153.285-.382.794-.687 1.527a92.57 92.57 0 0 1-.885 1.893l-3.45 6.107H69.51L66.305 12c-.152-.265-.427-.814-.824-1.649a17.802 17.802 0 0 0-.748-1.77c0 .905.035 2.34.107 4.304v8.688H62.93V6.153h2.718l4.916 9.435 4.672-9.435zm13.085 15.77a7.252 7.252 0 0 1-3.97-.93 4.87 4.87 0 0 1-2.015-2.672 14.443 14.443 0 0 1-.565-4.413 14.733 14.733 0 0 1 .565-4.427 4.931 4.931 0 0 1 1.97-2.718 8.733 8.733 0 0 1 7.923 0 5.023 5.023 0 0 1 2.015 2.718c.423 1.437.618 2.93.58 4.427a9.527 9.527 0 0 1-1.328 6.107 6.107 6.107 0 0 1-5.16 1.909h-.015zm0-1.648a4.672 4.672 0 0 0 2.702-.672 3.527 3.527 0 0 0 1.328-2.015A13.48 13.48 0 0 0 92.733 14a13.313 13.313 0 0 0-.382-3.573 3.527 3.527 0 0 0-1.328-2 4.687 4.687 0 0 0-2.702-.671 4.58 4.58 0 0 0-2.657.671 3.511 3.511 0 0 0-1.359 2.046 13.48 13.48 0 0 0-.381 3.558 8.931 8.931 0 0 0 .977 4.778 3.771 3.771 0 0 0 3.435 1.481l-.015-.015zm18.55-2.886a2.641 2.641 0 0 0-.49-1.71 2.351 2.351 0 0 0-1.251-.778 10.29 10.29 0 0 0-2.015-.214 6.656 6.656 0 0 1-3.619-1.069 4 4 0 0 1-1.236-3.389 3.649 3.649 0 0 1 1.648-3.405 8.198 8.198 0 0 1 4.275-.992 11.435 11.435 0 0 1 3.771.458v1.618a9.74 9.74 0 0 0-1.893-.35H104a4.58 4.58 0 0 0-2.687.686 2.229 2.229 0 0 0-.977 1.863c-.041.553.134 1.1.488 1.527.324.323.74.536 1.191.61.724.111 1.452.183 2.183.214a7.1 7.1 0 0 1 3.665 1.115 4.015 4.015 0 0 1 1.313 3.465 3.954 3.954 0 0 1-1.771 3.756 8.55 8.55 0 0 1-4.458 1.069 20.763 20.763 0 0 1-2.199-.168 13.282 13.282 0 0 1-2.366-.458v-1.878a8.061 8.061 0 0 0 2.152.504c.802.076 1.607.111 2.413.106 2.626.153 3.938-.702 3.938-2.564l-.015-.016z"/>
    </defs>
    <g fill="none" fill-rule="evenodd">
        <mask id="b" fill="#fff">
            <use xlink:href="#a"/>
        </mask>
        <use fill="#FFF" fill-rule="nonzero" xlink:href="#a"/>
        <g fill="#FFF" mask="url(#b)">
            <path d="M0 0h110v28H0z"/>
        </g>
    </g>
</svg>
