<svg xmlns="http://www.w3.org/2000/svg" width="28" height="28" viewBox="0 0 28 28">
    <g fill="#FFF" fill-rule="nonzero">
        <path d="M14 4.938L3.875 23.5h20.25L14 4.938zm.878-1.523l10.967 20.106A1 1 0 0 1 24.967 25H3.033a1 1 0 0 1-.878-1.479L13.122 3.415a1 1 0 0 1 1.756 0z"/>
        <path d="M13.18 17.782l-.096-5.932a.836.836 0 1 1 1.67 0l-.11 5.932a.732.732 0 0 1-1.463 0zm.733 3.387a.828.828 0 0 1-.593-.24.799.799 0 0 1-.25-.602c0-.232.083-.428.25-.588a.828.828 0 0 1 .593-.239c.238 0 .44.08.607.24.167.16.25.355.25.587a.799.799 0 0 1-.25.603.845.845 0 0 1-.607.24z"/>
    </g>
</svg>
