<svg xmlns="http://www.w3.org/2000/svg" width="28" height="28" viewBox="0 0 28 28">
    <g fill="#FFF" fill-rule="evenodd">
        <path d="M13.813 4c3.48 0 6.731 1.905 8.485 4.972.013.023.013.049.024.073l1.111-.409c.32-.118.636.149.554.474l-.977 3.947a.445.445 0 0 1-.687.254L19.1 10.913c-.268-.197-.194-.608.127-.726l1.217-.449C19.01 7.431 16.503 6 13.813 6c-4.328 0-7.85 3.589-7.85 8s3.522 8 7.85 8c2.784 0 5.386-1.524 6.788-3.979a.974.974 0 0 1 1.343-.361c.468.278.627.891.354 1.367C20.544 22.095 17.293 24 13.813 24 8.403 24 4 19.514 4 14S8.402 4 13.813 4"/>
        <path fill-rule="nonzero" d="M13.68 16.334h-3.23v-.56h1.328v-3.53l-1.25.413v-.582l1.54-.568h.384v4.267h1.229v.56zm2.436-4.934c.336 0 .635.063.898.188.263.126.484.3.664.522.18.222.317.488.412.795.094.308.142.646.142 1.016 0 .369-.048.707-.142 1.015a2.347 2.347 0 0 1-.412.795c-.18.222-.401.396-.664.522a2.06 2.06 0 0 1-.898.188c-.336 0-.634-.063-.895-.188-.26-.126-.481-.3-.664-.522a2.312 2.312 0 0 1-.415-.795A3.44 3.44 0 0 1 14 13.92c0-.37.047-.708.142-1.016.095-.307.233-.573.415-.795.183-.222.404-.396.664-.522.26-.125.559-.188.895-.188zm0 4.43c.232 0 .438-.047.617-.142.18-.094.33-.227.451-.397s.212-.373.274-.607c.061-.235.092-.489.092-.763 0-.275-.03-.53-.092-.764a1.855 1.855 0 0 0-.274-.607 1.273 1.273 0 0 0-.45-.397 1.306 1.306 0 0 0-.618-.142c-.237 0-.444.047-.621.142a1.283 1.283 0 0 0-.448.397c-.12.17-.212.373-.273.607a2.998 2.998 0 0 0-.092.764c0 .274.03.528.092.763.061.234.153.436.273.607.121.17.27.303.448.397.177.095.384.142.62.142z"/>
    </g>
</svg>
