<svg xmlns="http://www.w3.org/2000/svg" width="28" height="28" viewBox="0 0 28 28">
    <path fill="#FFF" fill-rule="nonzero" d="M20.285 24.41v-4.125h4.125a.59.59 0 0 0 .59-.588v-1.965a.592.592 0 0 0-.59-.588h-6.09c-.651 0-1.177.525-1.177 1.178v6.088c0 .325.265.59.59.59h1.963c.324 0 .59-.265.59-.59m-9.429 0v-6.088c0-.653-.525-1.178-1.179-1.178h-6.09a.59.59 0 0 0-.588.588v1.965a.59.59 0 0 0 .588.588h4.125v4.125c0 .325.266.59.59.59h1.965c.323 0 .59-.265.59-.59m0-14.732V3.59a.592.592 0 0 0-.59-.59H8.303a.591.591 0 0 0-.59.59v4.125H3.588A.59.59 0 0 0 3 8.303v1.966c0 .322.265.588.588.588h6.09c.653 0 1.18-.525 1.18-1.179m13.552 1.18h-6.09a1.176 1.176 0 0 1-1.177-1.18V3.59c0-.325.265-.59.59-.59h1.963c.324 0 .59.265.59.59v4.125h4.124a.59.59 0 0 1 .59.588v1.966a.592.592 0 0 1-.59.588"/>
</svg>
