<svg xmlns="http://www.w3.org/2000/svg" xmlns:xlink="http://www.w3.org/1999/xlink" width="28" height="28" viewBox="0 0 28 28">
    <defs>
        <path id="a" d="M10.857 24.41v-1.963a.591.591 0 0 0-.59-.59H6.144v-4.125a.59.59 0 0 0-.59-.588H3.59a.59.59 0 0 0-.59.588v6.09C3 24.475 3.525 25 4.178 25h6.09c.324 0 .59-.265.59-.59m13.552-7.266h-1.963a.59.59 0 0 0-.59.588v4.125h-4.125a.591.591 0 0 0-.59.59v1.963c0 .325.266.59.59.59h6.09c.652 0 1.178-.525 1.178-1.178v-6.09a.59.59 0 0 0-.59-.588M17.143 3.59v1.963c0 .325.265.59.59.59h4.124v4.126c0 .322.265.588.59.588h1.963c.325 0 .59-.266.59-.588v-6.09C25 3.525 24.474 3 23.822 3h-6.09a.591.591 0 0 0-.59.59M3 10.269v-6.09C3 3.525 3.525 3 4.178 3h6.09c.324 0 .59.265.59.59v1.963c0 .325-.266.59-.59.59H6.143v4.126a.592.592 0 0 1-.59.588H3.59A.592.592 0 0 1 3 10.27"/>
    </defs>
    <g fill="none" fill-rule="evenodd">
        <mask id="b" fill="#fff">
            <use xlink:href="#a"/>
        </mask>
        <g fill="#FFF" mask="url(#b)">
            <path d="M0 0h28v28H0z"/>
        </g>
    </g>
</svg>
