<svg xmlns="http://www.w3.org/2000/svg" xmlns:xlink="http://www.w3.org/1999/xlink" width="25" height="20" viewBox="0 0 25 20">
    <defs>
        <path id="a" d="M0 0h25v20H0z"/>
    </defs>
    <g fill="none" fill-rule="evenodd" opacity=".5">
        <mask id="b" fill="#fff">
            <use xlink:href="#a"/>
        </mask>
        <path fill="#FFF" fill-rule="nonzero" d="M12.62 4.304l-1.9 11.11H7.501l.72-4.522H4.008l-.75 4.522H0l1.901-11.11H5.14L4.48 8.138h4.275l.596-3.834h3.268zm11.018.72a2.662 2.662 0 0 1 1.027 2.363c0 .41-.037.82-.113 1.223l-.39 2.333a7.307 7.307 0 0 1-.843 2.55 3.587 3.587 0 0 1-1.634 1.448 6.68 6.68 0 0 1-2.744.483h-6.608l1.182-7.286h3.278l-.791 4.686h2.846c.493.03.977-.144 1.337-.483.349-.396.574-.885.647-1.408l.37-2.333c.04-.213.065-.43.072-.647a.925.925 0 0 0-.329-.833 2.055 2.055 0 0 0-1.08-.226H13.7l.493-2.59h6.166a5.745 5.745 0 0 1 3.279.72z" mask="url(#b)"/>
    </g>
</svg>
