<svg xmlns="http://www.w3.org/2000/svg" width="58" height="28" viewBox="0 0 58 28">
    <path fill="#FFFFFE" fill-rule="evenodd" d="M21.985 12.1c0-2.1-1.425-3.675-3.45-3.675-2.025 0-3.45 1.575-3.45 3.675 0 2.1 1.425 3.675 3.45 3.675 2.025 0 3.45-1.575 3.45-3.675zm4.65 0c0 4.466-3.634 8.1-8.1 8.1-4.466 0-8.1-3.634-8.1-8.1 0-4.466 3.634-8.1 8.1-8.1 4.466 0 8.1 3.634 8.1 8.1zM.46 4.45v4.425h3.975v12.15c0 1.35-.75 2.55-2.25 2.55H.46V28h1.725c4.05 0 6.9-3.188 6.9-7.087V4.45H.46zM52.285 4c-1.348 0-2.83.379-3.9 1.705V4.45h-4.65v15.3h4.65v-8.7c0-1.425.75-2.625 2.243-2.625 1.507 0 2.257 1.2 2.257 2.55v8.775h4.65V10c0-3.825-2.1-6-5.25-6zm-15.15.45h4.65v16.463c0 3.9-2.85 7.087-6.9 7.087-3.975 0-6.9-3.15-6.9-6.6h4.65c.075 1.2.975 2.175 2.25 2.175 1.5 0 2.25-1.2 2.25-2.55v-2.53c-1.07 1.326-2.552 1.705-3.9 1.705-3.15 0-5.25-2.175-5.25-6V4.45h4.65v8.775c0 1.35.75 2.55 2.257 2.55 1.493 0 2.243-1.2 2.243-2.625v-8.7z"/>
</svg>
