<svg xmlns="http://www.w3.org/2000/svg" width="28" height="28" viewBox="0 0 28 28">
    <g fill="#FFF" fill-rule="evenodd">
        <path fill-rule="nonzero" d="M23 4H5a3 3 0 0 0-3 3v10l.005.176A3 3 0 0 0 5 20l7.867-.001 4.776 4.409.145.12c.866.622 1.996.51 2.682-.233l.12-.144.11-.168c.204-.337.3-.687.3-1.045V20L23 20a3 3 0 0 0 3-3V7a3 3 0 0 0-3-3zM5 6h18a1 1 0 0 1 1 1v10a1 1 0 0 1-1 1h-4v4.939L13.65 18H5a1 1 0 0 1-1-1V7a1 1 0 0 1 1-1z"/>
        <path d="M14 13a1 1 0 0 1 0 2H8a1 1 0 0 1 0-2h6zm6 0a1 1 0 0 1 0 2h-2a1 1 0 0 1 0-2h2zm0-4a1 1 0 0 1 0 2h-6a1 1 0 0 1 0-2h6zM10 9a1 1 0 0 1 0 2H8a1 1 0 0 1 0-2h2z"/>
    </g>
</svg>
