<svg xmlns="http://www.w3.org/2000/svg" xmlns:xlink="http://www.w3.org/1999/xlink" width="28" height="28" viewBox="0 0 28 28">
    <defs>
        <path id="a" d="M13.094 16.593v-5.156-4.423l-4.966 3.884a1.014 1.014 0 0 1-.625.214H4v5.776h3.503c.228 0 .448.076.625.214l4.966 3.884v-4.393zm2-5.655c1.977 1.647 1.977 4.478 0 6.125v5.957c0 .82-.97 1.276-1.625.764l-6.316-4.94H3c-.552 0-1-.438-1-.978v-7.732c0-.54.448-.978 1-.978h4.153l6.316-4.94c.655-.512 1.625-.056 1.625.764v5.958zm7.27 1.68l1.929-1.886a1.016 1.016 0 0 1 1.414 0c.39.382.39 1 0 1.383L23.778 14l1.93 1.886c.39.382.39 1 0 1.383a1.016 1.016 0 0 1-1.415 0l-1.929-1.886-1.93 1.886a1.016 1.016 0 0 1-1.413 0 .962.962 0 0 1 0-1.382L20.95 14l-1.93-1.886a.962.962 0 0 1 0-1.383 1.016 1.016 0 0 1 1.415 0l1.93 1.887z"/>
    </defs>
    <use fill="#FFF" fill-rule="nonzero" xlink:href="#a"/>
</svg>
