<svg xmlns="http://www.w3.org/2000/svg" width="28" height="28" viewBox="0 0 28 28">
    <path fill="#FFF" fill-rule="evenodd" d="M14.38 4c5.515 0 10 4.486 10 10s-4.485 10-10 10a10.04 10.04 0 0 1-8.645-4.973 1 1 0 0 1 1.729-1.006A8.03 8.03 0 0 0 14.38 22c4.41 0 8-3.589 8-8s-3.59-8-8-8c-2.74 0-5.295 1.431-6.756 3.738l1.24.449c.327.118.403.529.13.726l-3.286 2.398a.457.457 0 0 1-.7-.254L4.014 9.11c-.084-.325.238-.592.564-.474l1.132.409c.012-.024.012-.05.025-.073A10.041 10.041 0 0 1 14.38 4zm-1.045 13.525c-.363.247-.835-.029-.835-.483v-5.966c0-.454.472-.731.835-.483l4.413 2.977a.597.597 0 0 1 0 .973l-4.413 2.982z"/>
</svg>
