<svg xmlns="http://www.w3.org/2000/svg" width="28" height="28" viewBox="0 0 28 28">
    <g fill="#FFF" fill-rule="evenodd">
        <path d="M5.702 8.972c-.013.023-.013.049-.024.073l-1.111-.409c-.32-.118-.636.149-.554.474l.977 3.947c.073.3.438.435.687.254L8.9 10.913c.268-.197.194-.608-.127-.726l-1.217-.449C8.99 7.431 11.497 6 14.187 6c4.328 0 7.85 3.589 7.85 8s-3.522 8-7.85 8c-2.784 0-5.386-1.524-6.788-3.979a.974.974 0 0 0-1.343-.361 1.01 1.01 0 0 0-.354 1.367C7.456 22.095 10.707 24 14.187 24 19.597 24 24 19.514 24 14S19.598 4 14.187 4c-3.48 0-6.731 1.905-8.485 4.972z"/>
        <path fill-rule="nonzero" d="M13.73 16.434H10.5v-.56h1.328v-3.53l-1.25.413v-.582l1.54-.569h.384v4.268h1.228v.56zm2.436-4.934c.336 0 .635.063.898.188.263.126.484.3.664.522.18.222.317.488.412.795.094.308.142.646.142 1.015 0 .37-.048.708-.142 1.016a2.347 2.347 0 0 1-.412.795c-.18.222-.401.396-.664.522a2.06 2.06 0 0 1-.898.188c-.336 0-.634-.063-.895-.188-.26-.126-.481-.3-.664-.522a2.312 2.312 0 0 1-.415-.795 3.44 3.44 0 0 1-.142-1.015c0-.37.047-.708.142-1.016.095-.307.233-.573.415-.795.183-.222.404-.396.664-.522.26-.125.559-.188.895-.188zm0 4.43c.232 0 .438-.047.617-.142.18-.094.33-.227.451-.397s.212-.373.274-.607c.061-.235.092-.489.092-.764 0-.274-.03-.528-.092-.763a1.855 1.855 0 0 0-.274-.607 1.273 1.273 0 0 0-.45-.397 1.306 1.306 0 0 0-.618-.142c-.237 0-.444.047-.621.142a1.283 1.283 0 0 0-.448.397c-.12.17-.212.373-.273.607a2.998 2.998 0 0 0-.092.764c0 .274.03.528.092.763.061.234.153.436.273.607.121.17.27.303.448.397.177.095.384.142.62.142z"/>
    </g>
</svg>
