<svg xmlns="http://www.w3.org/2000/svg" width="28" height="28" viewBox="0 0 28 28">
    <path fill="#FFF" fill-rule="nonzero" d="M13.096 16.427v-4.99-4.411l-4.899 3.869c-.178.14-.4.217-.628.217H4v5.776h3.569c.228 0 .45.077.628.217l4.899 3.869v-4.547zm2-5.488c1.913 1.605 1.913 4.352 0 5.956v6.125c0 .822-.975 1.278-1.629.761l-6.252-4.937H3a.99.99 0 0 1-1-.978v-7.732a.99.99 0 0 1 1-.978h4.215l6.252-4.937c.654-.517 1.629-.061 1.629.76v5.96zm6.803 12.76a1.016 1.016 0 0 1-1.414.022.962.962 0 0 1-.024-1.382c4.718-4.768 4.726-11.907 0-16.681a.962.962 0 0 1 .024-1.383 1.016 1.016 0 0 1 1.414.023c5.477 5.532 5.467 13.875 0 19.4zm-2-3.866a1.016 1.016 0 0 1-1.414.022.962.962 0 0 1-.024-1.382c2.286-2.31 2.286-6.642 0-8.95a.962.962 0 0 1 .023-1.382 1.016 1.016 0 0 1 1.414.023c3.036 3.065 3.036 8.601 0 11.669z"/>
</svg>
